<svg width="20" height="16" viewBox="0 0 20 16" fill="none" xmlns="http://www.w3.org/2000/svg">
<path d="M18.3333 0.5H1.66667C0.758333 0.533333 0.0333333 1.25833 0 2.16667V13.8333C0.0333333 14.7417 0.758333 15.4667 1.66667 15.5H18.3333C19.2417 15.4667 19.9667 14.7417 20 13.8333V2.16667C19.9847 1.72952 19.8041 1.31445 19.4948 1.00515C19.1855 0.695856 18.7705 0.515338 18.3333 0.5ZM18.3333 13.8333H1.66667V2.16667H18.3333V13.8333ZM11.6667 12.1667V11.125C11.6667 9.74167 8.88333 9.04167 7.5 9.04167C6.11667 9.04167 3.33333 9.74167 3.33333 11.125V12.1667H11.6667ZM7.5 3.83333C6.94747 3.83333 6.41756 4.05283 6.02686 4.44353C5.63616 4.83423 5.41667 5.36413 5.41667 5.91667C5.41667 6.19025 5.47055 6.46116 5.57525 6.71392C5.67995 6.96669 5.83341 7.19635 6.02686 7.38981C6.41756 7.78051 6.94747 8 7.5 8C7.77359 8 8.0445 7.94611 8.29726 7.84142C8.55002 7.73672 8.77968 7.58326 8.97314 7.38981C9.16659 7.19635 9.32005 6.96669 9.42475 6.71392C9.52945 6.46116 9.58333 6.19025 9.58333 5.91667C9.58333 5.64308 9.52945 5.37217 9.42475 5.11941C9.32005 4.86665 9.16659 4.63698 8.97314 4.44353C8.77968 4.25007 8.55002 4.09661 8.29726 3.99192C8.0445 3.88722 7.77359 3.83333 7.5 3.83333ZM11.6667 3.83333V4.66667H16.6667V3.83333H11.6667ZM11.6667 5.5V6.33333H16.6667V5.5H11.6667ZM11.6667 7.16667V8H15V7.16667H11.6667Z" fill="black"/>
</svg>
