<svg width="20" height="22" viewBox="0 0 20 22" fill="none" xmlns="http://www.w3.org/2000/svg">
<path d="M17.6562 2.2329H16.7187V0.617676H15.1562V2.2329H4.84375V0.617676H3.28125V2.2329H2.34375C1.05141 2.2329 0 3.31979 0 4.65574V18.8697C0 20.2057 1.05141 21.2926 2.34375 21.2926H17.6562C18.9486 21.2926 20 20.2057 20 18.8697V4.65574C20 3.31979 18.9486 2.2329 17.6562 2.2329ZM18.4375 18.8697C18.4375 19.3151 18.087 19.6773 17.6562 19.6773H2.34375C1.91297 19.6773 1.5625 19.3151 1.5625 18.8697V8.20924H18.4375V18.8697ZM18.4375 6.59401H1.5625V4.65574C1.5625 4.21042 1.91297 3.84813 2.34375 3.84813H3.28125V5.46335H4.84375V3.84813H15.1562V5.46335H16.7187V3.84813H17.6562C18.087 3.84813 18.4375 4.21042 18.4375 4.65574V6.59401Z" fill="black"/>
</svg>
