<svg width="33" height="25" viewBox="0 0 33 25" fill="none" xmlns="http://www.w3.org/2000/svg">
<path d="M32.954 13.6204C32.8357 12.7661 31.9552 12.0828 30.3059 11.5834C28.9719 11.1825 27.2832 10.9394 25.4433 10.9V3.88861C25.4433 3.74405 25.3973 3.60605 25.3053 3.49435C25.0884 2.7321 24.2079 2.11442 22.6834 1.65444C21.2049 1.20761 19.273 0.964478 17.2425 0.964478C15.2186 0.964478 13.3065 1.20761 11.8608 1.65444C10.6714 2.02242 9.24552 2.70582 9.24552 3.88204C9.24552 3.95432 9.25209 4.0266 9.26523 4.09889L9.33752 7.0953C5.07288 6.27392 0.952808 9.07977 0.137993 13.351C0.0459976 13.8307 0 14.3235 0 14.8163C0 19.1532 3.52867 22.6819 7.86559 22.6819C9.67264 22.6819 11.4205 22.0577 12.8268 20.9209C14.0621 21.21 15.5078 21.3677 17.0388 21.3808C17.374 23.201 21.3166 24.0356 24.9964 24.0356C27.0203 24.0356 28.9259 23.7859 30.3847 23.3325C31.5806 22.9645 33 22.2745 33 21.0983V13.8767C33 13.7912 32.9869 13.6992 32.954 13.6204ZM12.2551 2.90952C13.5824 2.50211 15.3566 2.27212 17.2491 2.27212C19.1284 2.27212 20.9683 2.50211 22.3088 2.90952C23.7348 3.34321 24.0436 3.79004 24.0436 3.88204C24.0436 3.97403 23.7348 4.42744 22.3023 4.85456C20.9683 5.2554 19.1284 5.49196 17.2491 5.49196C15.4355 5.49196 13.7139 5.28168 12.4062 4.90056C10.9934 4.49315 10.5992 4.03975 10.5663 3.89518C10.5663 3.88204 10.5663 3.87547 10.5597 3.87547C10.5663 3.78347 10.8686 3.33664 12.2551 2.90952ZM24.129 5.52481V7.20701C24.0699 7.299 24.037 7.41071 24.0436 7.52242C24.0436 7.60785 23.7348 8.06125 22.3023 8.49494C20.9683 8.89578 19.1219 9.13234 17.2425 9.13234C15.6195 9.13234 14.0293 8.96149 12.7676 8.63951C12.7479 8.63294 12.7348 8.63293 12.7151 8.62636C12.0908 8.13353 11.4008 7.74584 10.6583 7.46328L10.6123 5.61024C11.0657 5.84022 11.5388 6.02421 12.0317 6.15564C13.4576 6.56961 15.3041 6.79303 17.2425 6.79303C19.273 6.79303 21.2049 6.5499 22.6768 6.10307C23.1828 5.96507 23.6691 5.76794 24.129 5.52481ZM12.2748 19.6592C9.60036 22.0971 5.454 21.9 3.0227 19.2255C0.591398 16.5511 0.781959 12.4047 3.45639 9.97344C4.66547 8.87607 6.23596 8.26495 7.86559 8.26495C8.5227 8.26495 9.17981 8.36352 9.81063 8.55408C12.0842 9.27033 13.7993 11.1562 14.2921 13.489C14.3775 13.9227 14.4235 14.3695 14.4235 14.8098C14.4235 16.6628 13.6416 18.4239 12.2748 19.6592ZM13.9438 19.8038C14.4761 19.1532 14.9032 18.4239 15.2055 17.6419C15.764 17.6879 16.3554 17.7207 16.96 17.7273V17.8456L16.9928 20.0732C15.9743 20.0601 14.9558 19.9681 13.9438 19.8038ZM15.6918 14.0344C16.0795 14.0607 16.4803 14.0738 16.8877 14.0804C16.8877 14.0935 16.8943 14.1132 16.8943 14.1264L16.9337 16.4065C16.4671 16.4 16.0137 16.3802 15.5735 16.3474C15.672 15.8414 15.7246 15.3223 15.7246 14.8098C15.7312 14.5535 15.718 14.2972 15.6918 14.0344ZM17.3082 12.7727C17.2885 12.7727 17.2688 12.7727 17.2491 12.7727C16.6183 12.7727 16.0072 12.7464 15.4421 12.707C15.1924 11.8265 14.7981 10.9985 14.2658 10.2626C15.2515 10.3874 16.2437 10.4531 17.2425 10.4531C19.273 10.4531 21.2049 10.21 22.6834 9.76316C23.1894 9.60546 23.6691 9.41489 24.129 9.17176V10.9131C21.3035 10.992 18.3859 11.5834 17.3082 12.7727ZM18.1888 13.7847C18.2545 13.6007 18.7342 13.1736 20.0812 12.7924C21.3626 12.431 23.0317 12.2339 24.7861 12.2339H24.8716C26.7509 12.2339 28.5908 12.4507 29.9313 12.8581C31.3178 13.2787 31.6464 13.6992 31.6661 13.811V13.8175C31.6595 13.9161 31.3309 14.3695 29.8722 14.8032C28.5251 15.204 26.7509 15.4209 24.8716 15.4209C23.0974 15.4209 21.402 15.2172 20.101 14.8558C18.8459 14.5009 18.3399 14.1001 18.2151 13.8964C18.2085 13.8569 18.2019 13.8175 18.1888 13.7847ZM31.6858 21.0983C31.6858 21.1903 31.3901 21.6437 29.997 22.0774C28.6631 22.4914 26.8889 22.7213 24.9964 22.7213C23.0974 22.7213 21.3232 22.4979 20.009 22.0971C18.6159 21.67 18.3333 21.2297 18.3333 21.1311C18.3333 21.1246 18.3333 21.1246 18.3333 21.118L18.3005 19.219C19.8644 20.0141 22.4731 20.3755 24.865 20.3755C26.8955 20.3755 28.8142 20.1323 30.2861 19.6855C30.7724 19.5409 31.2389 19.3438 31.6858 19.1072V21.0983ZM31.6266 17.4579C31.6266 17.5499 31.3244 17.9967 29.905 18.4304C28.5579 18.8378 26.7706 19.0613 24.865 19.0613C21.2575 19.0613 18.813 18.253 18.2742 17.6156L18.2611 17.0505L18.2348 15.5457C18.7145 15.7888 19.2139 15.9794 19.733 16.1174C21.1458 16.5117 22.9659 16.7351 24.8584 16.7351C26.856 16.7351 28.7616 16.4985 30.227 16.0648C30.733 15.9203 31.2192 15.7297 31.6792 15.4866V17.1753H31.6858C31.6858 17.2608 31.6266 17.3593 31.6266 17.4579Z" fill="black"/>
</svg>
