<svg width="31" height="24" viewBox="0 0 31 24" fill="none" xmlns="http://www.w3.org/2000/svg">
<path d="M28.3922 7.84539C27.0275 7.87757 26.1418 9.3589 26.7201 10.6359C25.6803 11.5485 24.23 12.4874 23.4539 12.287C23.3775 12.2674 22.99 11.7709 22.987 9.88757C22.9859 9.11779 23.0498 8.35415 23.1097 7.8093C24.05 7.62212 24.7444 6.7142 24.6344 5.66544C24.5236 4.60927 23.6349 3.85292 22.6104 3.92744C21.2093 4.02936 20.3889 5.6546 21.1338 6.90714C20.4199 8.00787 19.299 9.28143 18.5158 9.31514C18.4168 9.25753 17.7835 8.79542 16.9321 6.05033C16.6082 5.00507 16.2692 3.58025 16.2692 3.5553C16.7799 3.17752 17.1011 2.54356 17.0588 1.83667C17.0005 0.86415 16.2416 0.0726776 15.302 0.00489321C14.1954 -0.0749649 13.2709 0.833138 13.2709 1.9612C13.2709 2.6176 13.5837 3.19983 14.0642 3.5553C14.0642 3.57583 13.7634 4.88212 13.4012 6.05033C12.5499 8.79542 11.9165 9.25753 11.8176 9.31514C11.0344 9.28143 9.91286 8.00726 9.19956 6.90714C9.94415 5.65509 9.12449 4.02973 7.72347 3.9275C6.69895 3.85273 5.80986 4.60896 5.69901 5.66526C5.58893 6.71408 6.28334 7.62212 7.22374 7.8093C7.28357 8.35415 7.34756 9.11779 7.34637 9.88757C7.34341 11.7709 6.95595 12.2674 6.87952 12.287C6.10342 12.488 4.6531 11.5485 3.61335 10.6359C4.19158 9.35902 3.30546 7.87739 1.94093 7.84539C0.943419 7.82198 0.0844268 8.61866 0.00604573 9.64763C-0.0793855 10.7688 0.751525 11.7139 1.80579 11.7648C2.27282 12.6864 3.28342 14.8339 3.9876 17.426C4.02362 17.5587 4.1398 17.6509 4.27298 17.6509H26.0604C26.1936 17.6509 26.3097 17.5587 26.3457 17.426C27.05 14.8334 28.0611 12.6864 28.5282 11.7648C29.5817 11.7133 30.4127 10.769 30.3273 9.64781C30.249 8.61866 29.3899 7.82186 28.3922 7.84539ZM15.1667 16.18C14.3165 16.18 13.7448 15.2932 13.7448 13.9736C13.7448 12.6541 14.3165 11.7673 15.1667 11.7673C16.0169 11.7673 16.5886 12.6541 16.5886 13.9736C16.5886 15.2932 16.0169 16.18 15.1667 16.18Z" fill="black"/>
<path d="M4.53183 19.9663C4.66234 20.8162 4.73942 21.6851 4.7396 22.5508C4.73972 23.0927 5.15852 23.5345 5.68236 23.5345H24.6511C25.1749 23.5345 25.5937 23.0927 25.5938 22.5508C25.594 21.6852 25.6711 20.8162 25.8016 19.9663C25.8301 19.7803 25.6915 19.6121 25.5094 19.6121H4.82402C4.64196 19.6121 4.50321 19.7803 4.53183 19.9663Z" fill="black"/>
</svg>
