<svg width="20" height="21" viewBox="0 0 20 21" fill="none" xmlns="http://www.w3.org/2000/svg">
<path d="M20 10.44C20 4.64331 15.6075 0.102539 10 0.102539C4.3925 0.102539 0 4.64331 0 10.44C0 16.2367 4.3925 20.7775 10 20.7775C11.4116 20.7775 12.7783 20.4835 14.062 19.9039L13.4365 18.4237C12.3512 18.9138 11.1951 19.1622 10 19.1622C5.26871 19.1622 1.5625 15.331 1.5625 10.44C1.5625 5.54901 5.26871 1.71777 10 1.71777C14.7313 1.71777 18.4375 5.54901 18.4375 10.44C18.4375 12.2804 17.8817 14.0618 16.875 15.5451V13.6229H15.3125V18.4686H20V16.8534H17.8837C19.2439 15.0292 20 12.7746 20 10.44Z" fill="black"/>
</svg>
