<svg width="16" height="20" viewBox="0 0 16 20" fill="none" xmlns="http://www.w3.org/2000/svg">
<path d="M13.8568 2.62037H12.0474V1.81092C12.0474 1.54903 11.7617 1.43001 11.4999 1.43001H10.0952C9.76194 0.477696 8.92865 0.00154151 7.97634 0.00154151C7.03451 -0.0338659 6.17786 0.543635 5.85746 1.43001H4.47661C4.21473 1.43001 3.95284 1.54903 3.95284 1.81092V2.62037H2.14341C1.07117 2.63181 0.193954 3.47767 0.143555 4.54878V18.1906C0.143555 19.2381 1.09586 19.9999 2.14341 19.9999H13.8568C14.9044 19.9999 15.8567 19.2381 15.8567 18.1906V4.54882C15.8063 3.47767 14.9291 2.63181 13.8568 2.62037ZM4.9051 2.38231H6.21454C6.44311 2.35443 6.62671 2.18053 6.66691 1.95378C6.8079 1.33978 7.34657 0.899031 7.97634 0.882444C8.60028 0.901355 9.13084 1.34347 9.26195 1.95378C9.30465 2.18837 9.50037 2.3645 9.7381 2.38231H11.0952V4.28693H4.9051V2.38231ZM14.9044 18.1906C14.9044 18.7144 14.3806 19.0477 13.8568 19.0477H2.14341C1.61964 19.0477 1.09586 18.7144 1.09586 18.1906V4.54882C1.14444 4.00363 1.59613 3.5827 2.14341 3.57272H3.95279V4.78692C3.97795 5.05368 4.20898 5.25323 4.47657 5.23929H11.4998C11.7723 5.25419 12.0106 5.05738 12.0474 4.78692V3.57268H13.8568C14.404 3.5827 14.8557 4.00358 14.9043 4.54878V18.1906H14.9044Z" fill="black"/>
<path d="M6.1669 10.6436C5.98831 10.4553 5.69184 10.4447 5.50026 10.6198L3.97656 12.072L3.33376 11.4054C3.15517 11.2171 2.8587 11.2066 2.66712 11.3816C2.4827 11.5748 2.4827 11.8788 2.66712 12.072L3.64322 13.072C3.72771 13.1666 3.84974 13.2189 3.97651 13.2148C4.1021 13.213 4.22191 13.1617 4.30981 13.072L6.16681 11.3102C6.35091 11.1413 6.36321 10.8551 6.19429 10.6711C6.18563 10.6615 6.17647 10.6523 6.1669 10.6436Z" fill="black"/>
<path d="M12.9998 11.6675H7.52401C7.26102 11.6675 7.04785 11.8807 7.04785 12.1436C7.04785 12.4066 7.26102 12.6198 7.52401 12.6198H12.9998C13.2627 12.6198 13.4759 12.4066 13.4759 12.1436C13.4759 11.8807 13.2627 11.6675 12.9998 11.6675Z" fill="black"/>
<path d="M6.1669 6.83448C5.98831 6.64623 5.69184 6.63562 5.50026 6.81069L3.97656 8.26294L3.33376 7.59631C3.15517 7.40806 2.8587 7.39745 2.66712 7.57252C2.4827 7.76574 2.4827 8.06973 2.66712 8.26294L3.64322 9.26287C3.72771 9.35748 3.84974 9.40979 3.97651 9.40573C4.1021 9.40396 4.22191 9.3526 4.30981 9.26287L6.16681 7.50112C6.35091 7.33224 6.36321 7.04606 6.19429 6.862C6.18563 6.85239 6.17647 6.84323 6.1669 6.83448Z" fill="black"/>
<path d="M12.9998 7.85791H7.52401C7.26102 7.85791 7.04785 8.07108 7.04785 8.33407C7.04785 8.59705 7.26102 8.81022 7.52401 8.81022H12.9998C13.2627 8.81022 13.4759 8.59705 13.4759 8.33407C13.4759 8.07108 13.2627 7.85791 12.9998 7.85791Z" fill="black"/>
<path d="M6.1669 14.4526C5.98831 14.2644 5.69184 14.2538 5.50026 14.4288L3.97656 15.8811L3.33376 15.2145C3.15517 15.0262 2.8587 15.0156 2.66712 15.1907C2.4827 15.3839 2.4827 15.6879 2.66712 15.8811L3.64322 16.881C3.72771 16.9756 3.84974 17.0279 3.97651 17.0239C4.1021 17.0221 4.22191 16.9707 4.30981 16.881L6.16681 15.1193C6.35091 14.9504 6.36321 14.6642 6.19429 14.4802C6.18563 14.4706 6.17647 14.4614 6.1669 14.4526Z" fill="black"/>
<path d="M12.9998 15.4766H7.52401C7.26102 15.4766 7.04785 15.6897 7.04785 15.9527C7.04785 16.2157 7.26102 16.4289 7.52401 16.4289H12.9998C13.2627 16.4289 13.4759 16.2157 13.4759 15.9527C13.4759 15.6897 13.2627 15.4766 12.9998 15.4766Z" fill="black"/>
</svg>
