<svg width="20" height="20" viewBox="0 0 20 20" fill="none" xmlns="http://www.w3.org/2000/svg">
<path d="M16.4453 6.44531C16.4453 2.89139 13.5539 0 10 0C6.44608 0 3.55469 2.89139 3.55469 6.44531C3.55469 9.39011 5.53986 11.8799 8.24219 12.6469V15.3125H6.48438C6.24741 15.3125 6.03378 15.4553 5.94299 15.6743C5.85236 15.8931 5.90256 16.1452 6.0701 16.3127L9.58572 19.8283C9.70001 19.9428 9.85001 20 10 20C10.15 20 10.3 19.9428 10.4143 19.8283L13.9299 16.3127C14.0974 16.1452 14.1476 15.8931 14.057 15.6741C13.9662 15.4552 13.7526 15.3125 13.5156 15.3125H11.7578V12.6469C14.4601 11.8799 16.4453 9.39011 16.4453 6.44531V6.44531ZM4.72656 6.44531C4.72656 3.5376 7.09229 1.17188 10 1.17188C12.9077 1.17188 15.2734 3.5376 15.2734 6.44531C15.2734 9.35303 12.9077 11.7188 10 11.7188C7.09229 11.7188 4.72656 9.35303 4.72656 6.44531ZM11.1719 16.4844H12.101L10 18.5854L7.89902 16.4844H8.82812C9.15176 16.4844 9.41406 16.2221 9.41406 15.8984V12.8638C9.60709 12.8812 9.8024 12.8906 10 12.8906C10.1976 12.8906 10.3929 12.8812 10.5859 12.8638V15.8984C10.5859 16.2221 10.8482 16.4844 11.1719 16.4844Z" fill="black"/>
<path d="M10.586 9.96094V9.10477C11.2713 8.86459 11.7642 8.21182 11.7642 7.44553C11.7642 6.47629 10.9756 5.68771 10.0063 5.68771C9.68332 5.68771 9.42041 5.42496 9.42041 5.10178C9.42041 4.77875 9.68332 4.51584 10.0063 4.51584C10.3295 4.51584 10.5923 4.77875 10.5923 5.10178C10.5923 5.42542 10.8547 5.68771 11.1782 5.68771C11.5019 5.68771 11.7642 5.42542 11.7642 5.10178C11.7642 4.33563 11.2713 3.68286 10.586 3.44269V2.92969C10.586 2.60605 10.3237 2.34375 10.0001 2.34375C9.67645 2.34375 9.41415 2.60605 9.41415 2.92969V3.44696C8.73544 3.69049 8.24854 4.34021 8.24854 5.10178C8.24854 6.07101 9.03711 6.85959 10.0063 6.85959C10.3295 6.85959 10.5923 7.1225 10.5923 7.44553C10.5923 7.76871 10.3295 8.03146 10.0063 8.03146C9.68332 8.03146 9.42041 7.76871 9.42041 7.44553C9.42041 7.12189 9.15811 6.85959 8.83447 6.85959C8.51099 6.85959 8.24854 7.12189 8.24854 7.44553C8.24854 8.20709 8.73544 8.85681 9.41415 9.10049V9.96094C9.41415 10.2846 9.67645 10.5469 10.0001 10.5469C10.3237 10.5469 10.586 10.2846 10.586 9.96094Z" fill="black"/>
</svg>
