<svg width="30" height="28" viewBox="0 0 30 28" fill="none" xmlns="http://www.w3.org/2000/svg">
<path d="M24.0618 0.496582C24.2101 0.496458 24.3563 0.531521 24.4884 0.598892C24.6206 0.666263 24.7348 0.764019 24.8218 0.884131L24.8894 0.992894L29.8987 10.3853L29.9525 10.5128L29.9662 10.5603L29.9875 10.6566L30 10.7666L29.9975 10.8916L30 10.8104C30.0003 10.9375 29.9748 11.0634 29.925 11.1804L29.8875 11.2554L29.8375 11.3379L29.7725 11.4242L15.747 27.6312C15.627 27.7918 15.4574 27.9082 15.2644 27.9625L15.1919 27.98L15.0706 27.9975L14.9969 28L14.8719 27.9913L14.7643 27.9713L14.6356 27.9288L14.6031 27.9138C14.4874 27.8622 14.3842 27.7863 14.3005 27.6912L0.210026 11.4054L0.132516 11.2967L0.0725092 11.1804L0.0287536 11.0554L0 10.8929V10.7329L0.0187525 10.6091L0.031254 10.5591L0.0725092 10.4403L0.107513 10.3691L5.10814 0.992894C5.17783 0.862206 5.2775 0.749887 5.39897 0.665141C5.52044 0.580394 5.66026 0.525629 5.80698 0.505333L5.93324 0.496582H24.0605H24.0618ZM19.8812 11.748H10.1113L14.9994 24.4496L19.8812 11.748ZM8.10476 11.748H2.98287L12.2003 22.3968L8.10351 11.748H8.10476ZM27.0096 11.748H21.8927L17.801 22.3881L27.0109 11.748H27.0096ZM10.0275 2.37057H6.49581L2.49531 9.87275H8.026L10.0275 2.37057ZM18.0285 2.37057H11.9677L9.9675 9.87275H20.0275L18.0273 2.37057H18.0285ZM23.4992 2.37057H19.9675L21.969 9.87275H27.4984L23.4992 2.37057Z" fill="black"/>
</svg>
