<svg width="17" height="20" viewBox="0 0 17 20" fill="none" xmlns="http://www.w3.org/2000/svg">
<path fill-rule="evenodd" clip-rule="evenodd" d="M8.1001 1.53846C6.24727 1.53846 4.74526 3.03085 4.74526 4.8718C4.74526 6.71274 6.24727 8.20513 8.1001 8.20513C9.95292 8.20513 11.4549 6.71274 11.4549 4.8718C11.4549 3.03085 9.95292 1.53846 8.1001 1.53846ZM3.19687 4.8718C3.19687 2.18118 5.39212 0 8.1001 0C10.8081 0 13.0033 2.18118 13.0033 4.8718C13.0033 7.56241 10.8081 9.74359 8.1001 9.74359C5.39212 9.74359 3.19687 7.56241 3.19687 4.8718Z" fill="black"/>
<path fill-rule="evenodd" clip-rule="evenodd" d="M5.56627 13.3333C3.40254 13.3333 1.64848 15.0761 1.64848 17.226C1.64848 17.3389 1.66925 17.4186 1.69102 17.465C1.70939 17.5041 1.72516 17.5153 1.7383 17.5224C2.33997 17.8477 4.02691 18.4615 8.1001 18.4615C12.1733 18.4615 13.8602 17.8477 14.4619 17.5224C14.475 17.5153 14.4908 17.5041 14.5092 17.465C14.5309 17.4186 14.5517 17.3389 14.5517 17.226C14.5517 15.0761 12.7977 13.3333 10.6339 13.3333H5.56627ZM0.100098 17.226C0.100098 14.2265 2.54739 11.7949 5.56627 11.7949H10.6339C13.6528 11.7949 16.1001 14.2265 16.1001 17.226C16.1001 17.7766 15.8995 18.4966 15.202 18.8737C14.278 19.3733 12.296 20 8.1001 20C3.90424 20 1.92216 19.3733 0.998216 18.8737C0.300732 18.4966 0.100098 17.7766 0.100098 17.226Z" fill="black"/>
</svg>
