<svg width="16" height="20" viewBox="0 0 16 20" fill="none" xmlns="http://www.w3.org/2000/svg">
<path fill-rule="evenodd" clip-rule="evenodd" d="M2.85665 0.304466C4.2922 0.168961 6.39814 0 8 0C9.60186 0 11.7078 0.168961 13.1433 0.304466C14.4976 0.432301 15.549 1.51015 15.6498 2.85178C15.7924 4.74918 16 7.90785 16 10.2367C16 12.022 15.8781 14.2915 15.7575 16.1035C15.697 17.0119 15.6365 17.8097 15.5911 18.3806C15.5685 18.6661 15.5496 18.8949 15.5363 19.0526L15.5209 19.234L15.5154 19.2966L15.5153 19.2976C15.5153 19.2977 15.5153 19.2977 14.7441 19.2308L15.5153 19.2976C15.4927 19.5553 15.3412 19.7845 15.1122 19.9075C14.8831 20.0305 14.6072 20.0309 14.3779 19.9085L8.12207 16.5713C8.04584 16.5307 7.95416 16.5307 7.87793 16.5713L1.62213 19.9085C1.39277 20.0309 1.11687 20.0305 0.88784 19.9075C0.658814 19.7845 0.507325 19.5554 0.48466 19.2977L1.25591 19.2308C0.48466 19.2977 0.484666 19.2978 0.48466 19.2977L0.479129 19.234L0.46371 19.0526C0.450449 18.8949 0.431535 18.6661 0.408853 18.3806C0.363495 17.8097 0.303027 17.0119 0.242549 16.1035C0.12191 14.2915 0 12.022 0 10.2367C0 7.90785 0.20763 4.74918 0.350205 2.85178C0.451018 1.51015 1.50236 0.432301 2.85665 0.304466ZM1.93179 17.9971L7.1455 15.2159C7.67914 14.9312 8.32086 14.9312 8.8545 15.2159L14.0682 17.9971C14.1101 17.4598 14.1613 16.7707 14.2124 16.0019C14.3327 14.1962 14.4516 11.9687 14.4516 10.2367C14.4516 7.97099 14.2482 4.86326 14.1057 2.96632C14.0606 2.366 13.5938 1.89237 12.9969 1.83603C11.5651 1.70088 9.52245 1.53846 8 1.53846C6.47755 1.53846 4.43487 1.70088 3.00309 1.83603C2.40624 1.89237 1.9394 2.366 1.89429 2.96632C1.75175 4.86326 1.54839 7.97099 1.54839 10.2367C1.54839 11.9687 1.66734 14.1962 1.78756 16.0019C1.83874 16.7707 1.88993 17.4598 1.93179 17.9971Z" fill="black"/>
</svg>
