<svg width="20" height="20" viewBox="0 0 20 20" fill="none" xmlns="http://www.w3.org/2000/svg">
<path fill-rule="evenodd" clip-rule="evenodd" d="M18.4861 1.83591C18.5646 1.63418 18.3658 1.43542 18.1641 1.51387L1.65132 7.9355C1.44342 8.01635 1.43878 8.30885 1.64401 8.39626L7.98371 11.0965C8.3976 11.2728 8.72721 11.6024 8.9035 12.0163L11.6037 18.356C11.6912 18.5612 11.9836 18.5566 12.0645 18.3487L18.4861 1.83591ZM17.6231 0.122666C19.0352 -0.426493 20.4265 0.964821 19.8773 2.37694L13.4557 18.8897C12.8898 20.345 10.8423 20.3775 10.2304 18.9409L7.53018 12.6012C7.50499 12.5421 7.4579 12.495 7.39878 12.4698L1.05907 9.76958C-0.377518 9.1577 -0.345 7.11025 1.1103 6.5443L17.6231 0.122666Z" fill="black"/>
</svg>
