<svg width="20" height="16" viewBox="0 0 20 16" fill="none" xmlns="http://www.w3.org/2000/svg">
<path d="M18.2422 0.382812H1.75781C0.789766 0.382812 0 1.17172 0 2.14062V13.8594C0 14.825 0.78625 15.6172 1.75781 15.6172H18.2422C19.2078 15.6172 20 14.8309 20 13.8594V2.14062C20 1.175 19.2138 0.382812 18.2422 0.382812ZM17.9995 1.55469L10.0373 9.51691L2.00621 1.55469H17.9995ZM1.17188 13.6167V2.3777L6.81559 7.97301L1.17188 13.6167ZM2.00051 14.4453L7.64777 8.79805L9.62656 10.7598C9.85563 10.987 10.2253 10.9862 10.4534 10.758L12.3828 8.82863L17.9995 14.4453H2.00051ZM18.8281 13.6167L13.2114 8L18.8281 2.38328V13.6167Z" fill="black"/>
</svg>
